<?xml version="1.0" encoding="utf-8"?>
<!-- Generator: Adobe Illustrator 19.0.0, SVG Export Plug-In . SVG Version: 6.00 Build 0)  -->
<svg version="1.1" xmlns="http://www.w3.org/2000/svg" xmlns:xlink="http://www.w3.org/1999/xlink" x="0px" y="0px"
	 viewBox="0 0 183.25 75" enable-background="new 0 0 183.25 75" xml:space="preserve">
<g id="Text_Underline" display="none">
	<linearGradient id="XMLID_462_" gradientUnits="userSpaceOnUse" x1="51.413" y1="61.5499" x2="176.0859" y2="61.5499">
		<stop  offset="0.102" style="stop-color:#464746"/>
		<stop  offset="0.4337" style="stop-color:#555655"/>
		<stop  offset="0.9949" style="stop-color:#FFFFFF;stop-opacity:0"/>
	</linearGradient>
	<polygon id="XMLID_433_" display="inline" fill="url(#XMLID_462_)" points="176.09,62.18 58.07,62.1 51.41,62.08 51.41,60.94 
		58.19,60.92 176.09,61.13 	"/>
</g>
<g id="Text">
	<g id="XMLID_401_">
		<path id="XMLID_431_" fill="#41B7E9" d="M59.19,16.55c1.15,0,2.16,0.13,3.01,0.4c0.85,0.27,1.56,0.65,2.12,1.14
			c0.56,0.49,0.98,1.09,1.25,1.78c0.28,0.7,0.41,1.47,0.41,2.33c0,0.85-0.15,1.62-0.45,2.33c-0.3,0.7-0.73,1.31-1.3,1.82
			c-0.57,0.51-1.28,0.9-2.12,1.19c-0.84,0.28-1.82,0.43-2.92,0.43h-2.92v6.81h-2.45V16.55H59.19z M59.19,25.99
			c0.7,0,1.32-0.09,1.86-0.28c0.54-0.19,0.99-0.45,1.36-0.78c0.37-0.33,0.65-0.74,0.83-1.2c0.19-0.47,0.28-0.98,0.28-1.54
			c0-1.16-0.36-2.07-1.07-2.72c-0.72-0.65-1.8-0.98-3.26-0.98h-2.92v7.5H59.19z"/>
		<path id="XMLID_439_" fill="#41B7E9" d="M82.62,34.77h-1.91c-0.22,0-0.4-0.06-0.53-0.17c-0.14-0.11-0.24-0.25-0.3-0.42l-1.7-4.4
			H70l-1.7,4.4c-0.05,0.15-0.15,0.29-0.29,0.41c-0.14,0.12-0.32,0.18-0.53,0.18h-1.91l7.29-18.22h2.49L82.62,34.77z M77.49,28
			l-2.86-7.41c-0.08-0.22-0.17-0.48-0.27-0.77c-0.09-0.29-0.18-0.6-0.27-0.93c-0.18,0.69-0.36,1.26-0.55,1.72L70.68,28H77.49z"/>
		<path id="XMLID_519_" fill="#41B7E9" d="M95.36,32.69v2.07H85.03V16.55h2.45v16.15H95.36z"/>
		<path id="XMLID_533_" fill="#41B7E9" d="M112.89,34.77h-1.91c-0.22,0-0.4-0.06-0.53-0.17s-0.24-0.25-0.3-0.42l-1.7-4.4h-8.18
			l-1.7,4.4c-0.05,0.15-0.15,0.29-0.29,0.41c-0.14,0.12-0.32,0.18-0.53,0.18h-1.91l7.29-18.22h2.49L112.89,34.77z M107.76,28
			l-2.86-7.41c-0.08-0.22-0.17-0.48-0.27-0.77c-0.09-0.29-0.18-0.6-0.27-0.93c-0.18,0.69-0.36,1.26-0.55,1.72l-2.86,7.4H107.76z"/>
		<path id="XMLID_538_" fill="#41B7E9" d="M131.09,25.66c0,1.36-0.22,2.61-0.65,3.73c-0.43,1.12-1.04,2.08-1.83,2.87
			c-0.79,0.8-1.74,1.41-2.84,1.85c-1.11,0.44-2.33,0.65-3.67,0.65h-6.8V16.55h6.8c1.34,0,2.56,0.22,3.67,0.65
			c1.11,0.44,2.05,1.06,2.84,1.86c0.79,0.8,1.4,1.76,1.83,2.88C130.87,23.06,131.09,24.3,131.09,25.66z M128.56,25.66
			c0-1.12-0.15-2.12-0.46-3c-0.3-0.88-0.74-1.63-1.3-2.24c-0.56-0.61-1.24-1.08-2.03-1.4c-0.8-0.32-1.69-0.48-2.67-0.48h-4.34v14.23
			h4.34c0.98,0,1.87-0.16,2.67-0.48c0.8-0.32,1.47-0.79,2.03-1.39c0.56-0.61,0.99-1.35,1.3-2.23
			C128.41,27.78,128.56,26.78,128.56,25.66z"/>
		<path id="XMLID_548_" fill="#41B7E9" d="M137.1,34.77h-2.47V16.55h2.47V34.77z"/>
		<path id="XMLID_550_" fill="#41B7E9" d="M156.52,16.55v18.22h-1.23c-0.19,0-0.36-0.03-0.49-0.1c-0.13-0.07-0.26-0.18-0.39-0.34
			l-10.54-13.73c0.02,0.21,0.03,0.42,0.04,0.62c0.01,0.2,0.01,0.39,0.01,0.57v12.98h-2.16V16.55h1.27c0.11,0,0.2,0.01,0.28,0.02
			c0.08,0.01,0.14,0.03,0.2,0.06c0.06,0.03,0.12,0.07,0.18,0.13c0.06,0.06,0.12,0.13,0.19,0.21l10.54,13.72
			c-0.02-0.22-0.03-0.43-0.04-0.64c-0.01-0.21-0.02-0.4-0.02-0.59v-12.9H156.52z"/>
		<path id="XMLID_552_" fill="#41B7E9" d="M170.49,19.39c-0.08,0.13-0.16,0.22-0.25,0.29c-0.09,0.06-0.2,0.1-0.32,0.1
			c-0.14,0-0.31-0.07-0.51-0.22c-0.2-0.14-0.44-0.3-0.73-0.48c-0.29-0.17-0.64-0.33-1.05-0.48c-0.41-0.14-0.91-0.22-1.49-0.22
			c-0.55,0-1.04,0.07-1.46,0.22s-0.77,0.35-1.06,0.6c-0.28,0.25-0.5,0.55-0.64,0.9c-0.14,0.34-0.22,0.71-0.22,1.11
			c0,0.51,0.13,0.93,0.38,1.27c0.25,0.34,0.58,0.62,0.99,0.86c0.41,0.24,0.88,0.44,1.4,0.62c0.52,0.17,1.05,0.35,1.6,0.54
			c0.55,0.19,1.08,0.4,1.6,0.63c0.52,0.23,0.99,0.53,1.4,0.88c0.41,0.36,0.74,0.79,0.99,1.31c0.25,0.52,0.38,1.15,0.38,1.91
			c0,0.8-0.14,1.54-0.41,2.24s-0.67,1.31-1.19,1.82c-0.52,0.52-1.16,0.92-1.92,1.22c-0.76,0.3-1.62,0.45-2.59,0.45
			c-1.19,0-2.26-0.21-3.23-0.64c-0.97-0.43-1.79-1.01-2.48-1.74l0.71-1.17c0.07-0.09,0.15-0.17,0.25-0.24
			c0.1-0.06,0.21-0.1,0.32-0.1c0.11,0,0.23,0.04,0.38,0.13c0.14,0.09,0.3,0.2,0.48,0.34c0.18,0.14,0.38,0.28,0.61,0.44
			c0.23,0.16,0.49,0.31,0.78,0.45c0.29,0.14,0.63,0.25,1,0.34c0.37,0.09,0.79,0.13,1.26,0.13c0.58,0,1.11-0.08,1.56-0.24
			c0.46-0.16,0.85-0.39,1.16-0.68c0.32-0.29,0.56-0.64,0.73-1.05c0.17-0.41,0.25-0.86,0.25-1.36c0-0.55-0.13-1-0.38-1.35
			c-0.25-0.35-0.58-0.65-0.99-0.88c-0.41-0.24-0.87-0.44-1.4-0.6c-0.53-0.17-1.06-0.33-1.6-0.51c-0.54-0.17-1.08-0.38-1.6-0.6
			c-0.53-0.23-0.99-0.53-1.4-0.89c-0.41-0.36-0.74-0.82-0.99-1.37c-0.25-0.55-0.38-1.22-0.38-2.03c0-0.64,0.13-1.27,0.38-1.87
			s0.61-1.14,1.09-1.6c0.48-0.47,1.07-0.84,1.77-1.12c0.7-0.28,1.5-0.42,2.41-0.42c1.02,0,1.94,0.16,2.78,0.48
			c0.83,0.32,1.57,0.79,2.21,1.4L170.49,19.39z"/>
	</g>
	<g id="XMLID_405_">
		<path id="XMLID_520_" fill="#555655" d="M62.83,40.8h-4.78v14.06h-0.99V40.8h-4.81v-0.92h10.59V40.8z"/>
		<path id="XMLID_535_" fill="#555655" d="M76.91,47.36c0,1.16-0.16,2.21-0.47,3.15c-0.31,0.94-0.76,1.75-1.33,2.41
			c-0.57,0.67-1.26,1.18-2.06,1.55c-0.8,0.36-1.68,0.55-2.64,0.55c-0.96,0-1.84-0.18-2.64-0.55c-0.8-0.36-1.48-0.88-2.05-1.55
			c-0.57-0.67-1.01-1.47-1.33-2.41c-0.31-0.94-0.47-1.99-0.47-3.15c0-1.15,0.16-2.2,0.47-3.14c0.31-0.94,0.76-1.75,1.33-2.41
			c0.57-0.67,1.25-1.18,2.05-1.55c0.8-0.37,1.68-0.55,2.64-0.55c0.96,0,1.84,0.18,2.64,0.55c0.8,0.36,1.48,0.88,2.06,1.55
			s1.01,1.48,1.33,2.42C76.75,45.17,76.91,46.21,76.91,47.36z M75.88,47.36c0-1.04-0.13-1.98-0.39-2.82
			c-0.26-0.83-0.64-1.54-1.12-2.12s-1.06-1.02-1.73-1.33c-0.67-0.31-1.42-0.46-2.23-0.46c-0.81,0-1.55,0.15-2.22,0.46
			c-0.67,0.31-1.25,0.75-1.74,1.33c-0.48,0.58-0.86,1.28-1.13,2.12c-0.27,0.83-0.4,1.77-0.4,2.82c0,1.05,0.13,1.99,0.4,2.82
			c0.27,0.83,0.64,1.53,1.13,2.11c0.48,0.58,1.06,1.02,1.74,1.32c0.67,0.3,1.42,0.46,2.22,0.46c0.82,0,1.56-0.15,2.23-0.46
			c0.67-0.3,1.25-0.75,1.73-1.32s0.85-1.28,1.12-2.11C75.75,49.36,75.88,48.42,75.88,47.36z"/>
		<path id="XMLID_540_" fill="#555655" d="M84.05,39.71c1.6,0,2.8,0.55,3.61,1.32c0.81,0.77,1.22,1.87,1.22,3.29
			c0,0.66-0.11,1.26-0.34,1.81c-0.22,0.55-0.55,1.03-0.96,1.42c-0.42,0.4-0.92,0.71-1.52,0.93c-0.6,0.22-1.27,0.33-2.01,0.33h-2.53
			v6.04h-0.99V39.71H84.05z M84.05,47.96c0.6,0,1.13-0.09,1.61-0.28c0.48-0.18,0.88-0.44,1.21-0.76c0.33-0.32,0.58-0.71,0.76-1.15
			c0.18-0.44,0.26-0.92,0.26-1.45c0-1.15-0.32-2.04-0.96-2.66c-0.64-0.62-1.6-0.93-2.88-0.93h-2.53v7.22H84.05z"/>
		<path id="XMLID_554_" fill="#555655" d="M108.79,47.36c0,1.16-0.16,2.2-0.47,3.12c-0.31,0.93-0.76,1.71-1.33,2.36
			c-0.57,0.65-1.26,1.15-2.06,1.49c-0.8,0.35-1.68,0.52-2.64,0.52h-4.98V39.88h4.98c0.96,0,1.84,0.17,2.64,0.52
			c0.8,0.35,1.48,0.84,2.06,1.49c0.57,0.65,1.01,1.44,1.33,2.36C108.63,45.18,108.79,46.21,108.79,47.36z M107.77,47.36
			c0-1.04-0.13-1.98-0.39-2.8c-0.26-0.82-0.64-1.51-1.12-2.08c-0.48-0.56-1.06-1-1.73-1.29c-0.67-0.3-1.42-0.44-2.23-0.44h-3.99
			v13.23h3.99c0.82,0,1.56-0.15,2.23-0.44c0.67-0.3,1.25-0.73,1.73-1.29c0.48-0.56,0.85-1.26,1.12-2.08
			C107.64,49.35,107.77,48.42,107.77,47.36z"/>
		<path id="XMLID_557_" fill="#555655" d="M120.61,53.96l-0.02,0.9h-8.16V39.88h8.16v0.9h-7.17v6.06h5.97v0.88h-5.97v6.25H120.61z"
			/>
		<path id="XMLID_559_" fill="#555655" d="M133.6,52.34c0.06,0,0.12,0.02,0.16,0.07l0.39,0.46c-0.28,0.33-0.59,0.63-0.92,0.9
			c-0.33,0.26-0.69,0.49-1.09,0.68c-0.39,0.19-0.83,0.33-1.3,0.43c-0.47,0.1-0.99,0.15-1.55,0.15c-0.94,0-1.81-0.18-2.59-0.55
			c-0.79-0.36-1.46-0.88-2.03-1.55c-0.56-0.67-1-1.47-1.31-2.42c-0.31-0.95-0.47-2-0.47-3.16c0-1.14,0.16-2.17,0.48-3.11
			c0.32-0.94,0.77-1.75,1.35-2.42c0.58-0.67,1.27-1.2,2.08-1.57c0.81-0.37,1.7-0.56,2.68-0.56c0.93,0,1.76,0.16,2.47,0.48
			s1.37,0.77,1.96,1.34l-0.3,0.48c-0.05,0.08-0.13,0.13-0.24,0.13c-0.08,0-0.2-0.08-0.38-0.23c-0.17-0.16-0.41-0.33-0.72-0.51
			c-0.31-0.19-0.69-0.36-1.15-0.51c-0.46-0.15-1.01-0.23-1.65-0.23c-0.82,0-1.57,0.16-2.26,0.47c-0.68,0.31-1.27,0.76-1.76,1.33
			c-0.49,0.58-0.87,1.28-1.15,2.12c-0.28,0.83-0.41,1.77-0.41,2.81c0,1.06,0.14,2.01,0.42,2.84c0.28,0.83,0.66,1.54,1.15,2.11
			c0.49,0.58,1.06,1.02,1.73,1.32c0.66,0.31,1.38,0.46,2.15,0.46c0.49,0,0.92-0.04,1.3-0.11c0.38-0.07,0.73-0.18,1.05-0.32
			c0.32-0.14,0.62-0.31,0.9-0.52c0.28-0.2,0.55-0.45,0.82-0.72c0.03-0.03,0.06-0.05,0.1-0.07C133.54,52.35,133.57,52.34,133.6,52.34
			z"/>
		<path id="XMLID_561_" fill="#555655" d="M138.26,46.79h0.81c0.12,0,0.23-0.01,0.32-0.02c0.09-0.01,0.17-0.03,0.25-0.06
			c0.07-0.03,0.14-0.07,0.2-0.12c0.06-0.05,0.13-0.12,0.2-0.2l5.5-6.22c0.1-0.12,0.19-0.2,0.28-0.24c0.09-0.04,0.2-0.06,0.33-0.06
			h0.79l-5.95,6.72c-0.12,0.14-0.23,0.25-0.32,0.33c-0.09,0.08-0.2,0.14-0.31,0.19c0.13,0.04,0.26,0.11,0.37,0.2
			c0.11,0.09,0.22,0.2,0.33,0.34l6.27,7.2h-0.8c-0.17,0-0.29-0.02-0.36-0.07c-0.07-0.05-0.15-0.12-0.22-0.22l-5.76-6.48
			c-0.07-0.08-0.14-0.14-0.2-0.2c-0.06-0.06-0.13-0.1-0.2-0.14c-0.07-0.04-0.16-0.07-0.26-0.08c-0.1-0.02-0.23-0.03-0.38-0.03h-0.88
			v7.22h-0.99V39.88h0.99V46.79z"/>
		<path id="XMLID_563_" fill="#555655" d="M156.59,41.7c-0.06,0.12-0.14,0.18-0.25,0.18c-0.08,0-0.19-0.07-0.32-0.2
			c-0.13-0.13-0.31-0.28-0.53-0.43s-0.51-0.31-0.84-0.44c-0.34-0.13-0.75-0.2-1.25-0.2s-0.93,0.08-1.3,0.23s-0.69,0.37-0.94,0.64
			c-0.25,0.27-0.45,0.58-0.58,0.93c-0.13,0.35-0.2,0.72-0.2,1.11c0,0.51,0.1,0.93,0.29,1.26c0.2,0.33,0.45,0.61,0.78,0.85
			c0.32,0.23,0.68,0.43,1.09,0.59c0.41,0.16,0.83,0.32,1.26,0.47c0.43,0.16,0.85,0.33,1.26,0.51c0.41,0.19,0.77,0.42,1.09,0.7
			c0.32,0.28,0.58,0.63,0.77,1.04c0.2,0.41,0.29,0.93,0.29,1.54c0,0.63-0.1,1.22-0.29,1.77c-0.2,0.55-0.48,1.04-0.85,1.45
			c-0.37,0.41-0.83,0.73-1.37,0.97c-0.54,0.24-1.15,0.35-1.85,0.35c-0.9,0-1.67-0.17-2.32-0.52c-0.65-0.35-1.22-0.83-1.7-1.43
			l0.27-0.47c0.08-0.11,0.17-0.16,0.27-0.16c0.06,0,0.13,0.04,0.22,0.13c0.09,0.08,0.2,0.19,0.33,0.31c0.13,0.12,0.28,0.26,0.46,0.4
			c0.18,0.14,0.39,0.28,0.63,0.4c0.24,0.12,0.51,0.23,0.82,0.31c0.31,0.08,0.66,0.13,1.05,0.13c0.54,0,1.02-0.09,1.44-0.27
			c0.42-0.18,0.78-0.43,1.07-0.74c0.29-0.31,0.52-0.68,0.67-1.11c0.15-0.43,0.23-0.88,0.23-1.37c0-0.53-0.1-0.97-0.29-1.31
			c-0.2-0.34-0.45-0.63-0.77-0.86c-0.32-0.23-0.69-0.42-1.09-0.58c-0.41-0.16-0.83-0.31-1.26-0.46c-0.43-0.15-0.85-0.31-1.26-0.5
			c-0.41-0.18-0.77-0.42-1.09-0.7c-0.32-0.29-0.58-0.64-0.78-1.07c-0.2-0.43-0.29-0.96-0.29-1.6c0-0.5,0.09-0.98,0.26-1.45
			c0.17-0.47,0.43-0.88,0.76-1.23c0.33-0.36,0.75-0.64,1.24-0.86c0.49-0.22,1.05-0.32,1.68-0.32c0.71,0,1.34,0.12,1.9,0.37
			c0.56,0.25,1.07,0.62,1.54,1.13L156.59,41.7z"/>
	</g>
</g>
<g id="Wings_Shading" display="none">
	<g id="XMLID_469_" display="inline">
		<path id="XMLID_434_" fill="#4A494A" d="M-32.13,61.84c9.27,0.15,23.41-0.09,38.16-0.45l-1.08-1.09l-35.83,0.52L-32.13,61.84z"/>
		<path id="XMLID_416_" fill="#4A494A" d="M-3.14,26.4c-0.31-0.2-12.59,18.23-12.28,18.43l0.18,0.07l11.09-16.66
			C-3.81,27.79-3.33,26.8-3.14,26.4z"/>
		<path id="XMLID_419_" fill="#4A494A" d="M-15.18,44.83c8.84,3.54,14.62,7.55,14.62,7.55c-0.03,0.06-14.88-7.48-14.85-7.55H-15.18z
			"/>
	</g>
	<g id="XMLID_413_" display="inline">
		<path id="XMLID_426_" fill="#4A494A" d="M61.45,62.07c-9.27,0.15-23.41-0.09-38.16-0.45l1.08-1.09l35.83,0.52L61.45,62.07z"/>
		<path id="XMLID_420_" fill="#4A494A" d="M32.46,26.63c0.31-0.2,12.59,18.23,12.28,18.43l-0.18,0.07L33.47,28.48
			C33.13,28.02,32.65,27.03,32.46,26.63z"/>
		<path id="XMLID_417_" fill="#4A494A" d="M44.5,45.06c-8.84,3.54-14.62,7.55-14.62,7.55c0.03,0.06,14.88-7.48,14.85-7.55H44.5z"/>
	</g>
</g>
<g id="Wings" display="none">
	<path id="XMLID_412_" display="inline" fill="#666766" d="M8.11,63.68c0.41,0,0.82,0,1.23,0C5.16,53.5-6.13,49.03-15.42,44.83
		c2.26-3.38,4.52-6.77,6.78-10.15c1.12-1.68,2.24-3.36,3.36-5.03c0.51-0.76,1.02-1.52,1.52-2.28c0.12-0.18,0.62-0.77,0.65-1.09
		c0.02-0.18-0.99,0.94-1.05,1.01c-4.91,5.77-9.79,11.6-13.96,17.94C-9.25,49.11-0.74,54,5.77,61.31c-12.64,0-25.27,0.43-37.91,0.53"
		/>
	<path id="XMLID_398_" display="inline" fill="#666766" d="M21.21,63.91c-0.41,0-0.82,0-1.23,0c4.17-10.18,15.46-14.66,24.75-18.85
		c-2.26-3.38-4.52-6.77-6.78-10.15c-1.12-1.68-2.24-3.36-3.36-5.03c-0.51-0.76-1.02-1.52-1.52-2.28c-0.12-0.18-0.62-0.77-0.65-1.09
		c-0.02-0.18,0.99,0.94,1.05,1.01c4.91,5.77,9.79,11.6,13.96,17.94c-8.88,3.89-17.39,8.77-23.9,16.09c12.64,0,25.27,0.43,37.91,0.53
		"/>
</g>
<g id="Crystal_-_Medium_Highlights" opacity="0.9">
	<path id="XMLID_595_" fill="#8ACDE9" d="M28.15,49.01c-0.19-0.04-0.43-0.19-0.56-0.11c-0.69,0.41-1.33,0.25-1.97-0.09
		c-0.52-0.28-0.72-0.08-0.76,0.45c-0.05,0.59-0.12,1.17-0.19,1.9c-0.57-0.49-1.11-0.89-1.59-1.35c-2.68-2.6-5.68-4.76-8.87-6.66
		c-0.17-0.1-0.32-0.23-0.48-0.34c0.81-0.1,1.61-0.57,2.44-0.06c0.54,0.34,1.1,0.65,1.65,0.98c1.73,1.04,3.12,2.48,4.55,3.88
		c0.63,0.61,1.41,1.06,2.12,1.59c0.06-0.06,0.13-0.12,0.19-0.17c0.02-0.29,0.03-0.58,0.05-0.86c0.84-0.65,1.68-1.3,2.51-1.95
		c0.08,0.05,0.18,0.09,0.25,0.16c0.93,1.02,1.37,1.09,2.6,0.52c0.32-0.15,0.7-0.14,1.06-0.21c-0.35,0.3-0.71,0.6-1.06,0.9
		C29.45,48.04,28.8,48.52,28.15,49.01z"/>
	<path id="XMLID_593_" fill="#8ACDE9" d="M35.28,43.97c-0.44,0.25-0.89,0.5-1.33,0.75c0.23-0.34,0.38-0.8,0.7-1
		c1.12-0.71,2.3-1.33,3.45-1.98c0.06,0.16,0.12,0.32,0.17,0.47C37.28,42.79,36.28,43.38,35.28,43.97z"/>
	<path id="XMLID_592_" fill="#8ACDE9" d="M21.19,45.15c1.18,1,2.37,2,3.55,3c-0.02,0.29-0.03,0.58-0.05,0.86
		c-0.06,0.06-0.13,0.12-0.19,0.17c-0.71-0.52-1.5-0.98-2.12-1.59c-1.43-1.4-2.82-2.83-4.55-3.88c-0.55-0.33-1.11-0.65-1.65-0.98
		c-0.83-0.51-1.63-0.04-2.44,0.06c-0.59-0.3-1.17-0.61-1.76-0.91c0.15,0.01,0.29,0.01,0.44,0.03c1.7,0.23,1.79,0.12,1.34-1.49
		c1.35,0.78,2.73,1.51,4.04,2.35C18.96,43.51,20.06,44.35,21.19,45.15z"/>
	<path id="XMLID_591_" fill="#8ACDE9" d="M38.43,41.45c-0.29-0.47-0.72-0.61-1.26-0.61c-0.63-0.01-1.26-0.09-1.9-0.15
		c0.73-0.35,1.45-0.74,2.2-1.05c0.24-0.1,0.58-0.04,0.85,0.03c0.72,0.18,1.42,0.41,2.13,0.62c-0.12,0.15-0.2,0.36-0.35,0.43
		C39.56,40.99,38.99,41.21,38.43,41.45z"/>
	<path id="XMLID_590_" fill="#8ACDE9" d="M29.68,42.36c-1.2,1.04-2.39,2.09-3.59,3.13c-0.4,0.43-0.79,0.86-1.26,1.36
		c-2.04-2.25-4.22-4.16-6.78-5.59c0.6-0.18,1.23-0.3,1.79-0.56c0.91-0.43,1.67-0.25,2.4,0.37c0.34,0.29,0.7,0.55,1.07,0.8
		c0.41,0.28,0.84,0.53,1.29,0.81c0.11-0.43,0.19-0.73,0.27-1.04c0.5-0.36,0.99-0.72,1.49-1.08c0.57,0.44,1.12,0.91,1.71,1.31
		c0.28,0.19,0.64,0.28,0.97,0.39C29.26,42.32,29.47,42.33,29.68,42.36z"/>
	<path id="XMLID_589_" fill="#8ACDE9" d="M33.08,40.42c-0.14-1.4-1.33-1.91-2.23-2.68c0.14-0.04,0.3-0.16,0.41-0.12
		c1.51,0.5,3.02,1.01,4.52,1.52c0,0.07-0.01,0.14-0.01,0.21C34.87,39.71,33.98,40.07,33.08,40.42z"/>
	<path id="XMLID_471_" fill="#A5DDEF" d="M30.09,47.55c0.35-0.3,0.71-0.6,1.06-0.9c0.93-0.65,1.87-1.29,2.8-1.94
		c0.44-0.25,0.89-0.5,1.33-0.75c-0.02,0.13,0,0.32-0.08,0.38c-1.42,1.08-2.84,2.16-4.3,3.2C30.73,47.68,30.37,47.56,30.09,47.55z"/>
</g>
<g id="Crystal_-_Outer_Rim" opacity="0.9">
	<path id="XMLID_623_" opacity="0.9" fill="#A2DCEE" d="M3.47,42.19c0.3-0.01,0.6-0.01,0.91-0.02c1.13,0.41,2.28,0.75,3.37,1.23
		c4.93,2.19,9.4,5.09,13.29,8.85c0.94,0.91,1.86,1.82,2.8,2.73c0.28,0.33,0.56,0.67,0.92,1.09c0.66-0.76,1.2-1.38,1.74-2
		c1.39-1.26,2.74-2.56,4.18-3.77c3.68-3.1,7.78-5.5,12.19-7.39c0.76-0.29,1.53-0.57,2.4-0.9c-0.25-0.37-0.42-0.62-0.6-0.87
		c-0.11-0.25-0.22-0.49-0.33-0.74c0.11-0.05,0.22-0.1,0.33-0.15c0.37,0.55,0.74,1.11,1.11,1.66c0.32,0.48,0.15,0.76-0.35,0.97
		c-1.76,0.72-3.56,1.37-5.27,2.2c-3.59,1.75-6.96,3.88-10,6.48c-0.09,0.08-0.16,0.19-0.24,0.28c-1.52,1.48-3.07,2.94-4.56,4.46
		c-0.42,0.43-0.62,0.4-0.98-0.01c-3.7-4.18-8.01-7.62-12.88-10.33c-0.62-0.35-1.27-0.64-1.91-0.95c-1.82-0.76-3.64-1.51-5.44-2.29
		C3.89,42.61,3.69,42.37,3.47,42.19z"/>
	<path id="XMLID_587_" opacity="0.9" fill="#A2DCEE" d="M44.35,40.4c0.11,0.25,0.22,0.49,0.33,0.74c-0.6,0.59-1.2,1.18-1.81,1.77
		c-4.41,1.88-8.52,4.29-12.19,7.39c-1.43,1.21-3.71,3.41-5.1,4.67c-0.11,0.4-0.68,1.04-0.82,1.1c-0.1,0.04-0.23-0.24-0.51-0.6
		c-0.93-0.91-2.28-2.32-3.21-3.23c-3.89-3.76-8.36-6.66-13.29-8.85c-1.09-0.49-2.25-0.83-3.37-1.23c0.17-0.37,0.28-0.77,0.51-1.1
		c3.83-5.65,7.62-11.33,11.54-16.91c1.94-2.77,4.13-5.36,6.23-8.02c0.46-0.58,1.05-1.05,1.55-1.6c0.39-0.44,0.7-0.43,1.08,0.01
		c1.72,2,3.58,3.9,5.16,6.01c3.05,4.07,5.97,8.25,8.89,12.42c1.56,2.23,3,4.53,4.5,6.8C43.99,40,44.18,40.19,44.35,40.4z
		 M25.02,15.19c-0.36,0.2-0.63,0.29-0.83,0.47c-0.77,0.69-1.62,1.33-2.27,2.12c-1.43,1.73-2.8,3.52-4.13,5.33
		c-1.1,1.49-2.11,3.05-3.18,4.57c-1.76,2.51-3.6,4.96-5.26,7.53c-1.13,1.76-2,3.68-3.03,5.51c-0.33,0.58-0.26,0.82,0.36,1.1
		c2.07,0.95,4.12,1.91,6.14,2.96c4.27,2.22,7.7,5.53,11.13,8.81c0.69,0.66,0.78,0.68,1.49,0.01c1.7-1.59,3.34-3.24,5.12-4.73
		c3.68-3.07,7.78-5.44,12.27-7.13c0.9-0.34,0.93-0.56,0.4-1.35c-1.45-2.19-2.85-4.4-4.32-6.58c-2.15-3.2-4.29-6.41-6.53-9.54
		c-1.93-2.7-3.99-5.3-6.02-7.92C26.02,15.9,25.48,15.58,25.02,15.19z"/>
	<path id="XMLID_584_" fill="#A2DCEE" d="M25.02,15.19c0.45,0.39,0.99,0.71,1.35,1.17c2.04,2.62,4.09,5.22,6.02,7.92
		c2.24,3.13,4.38,6.34,6.53,9.54c1.46,2.17,2.87,4.39,4.32,6.58c0.53,0.79,0.49,1.02-0.4,1.35c-4.49,1.69-8.6,4.06-12.27,7.13
		c-1.78,1.49-3.43,3.14-5.12,4.73c-0.71,0.67-0.8,0.65-1.49-0.01c-3.44-3.28-6.86-6.59-11.13-8.81c-2.02-1.05-4.07-2.02-6.14-2.96
		c-0.62-0.28-0.69-0.52-0.36-1.1c1.03-1.82,1.9-3.75,3.03-5.51c1.66-2.57,3.51-5.02,5.26-7.53c1.06-1.52,2.08-3.08,3.18-4.57
		c1.33-1.81,2.7-3.6,4.13-5.33c0.65-0.79,1.49-1.43,2.27-2.12C24.39,15.49,24.66,15.39,25.02,15.19z M35.28,43.97
		c1-0.59,2-1.18,2.99-1.77c1.05-0.47,2.1-0.94,3.15-1.4c-1.34-3.08-14.64-21.51-16.72-23.16c-6.19,7.22-11.33,15.2-16.64,23.12
		c6.45,2.7,11.9,6.62,16.83,11.62c1.1-1.15,2.18-2.26,3.25-3.38c0.65-0.48,1.3-0.97,1.95-1.45c0.27,0.01,0.63,0.13,0.81,0
		c1.45-1.04,2.88-2.12,4.3-3.2C35.28,44.29,35.26,44.1,35.28,43.97z"/>
	<path id="XMLID_583_" fill="#A5DDEF" d="M3.47,42.19c0.85-1.39,1.65-2.82,2.58-4.15c3.83-5.54,7.62-11.1,11.58-16.55
		c1.95-2.67,4.24-5.09,6.37-7.63c0.49-0.58,0.86-0.51,1.37,0.02c2.82,2.91,5.3,6.07,7.63,9.38c2.52,3.58,5.07,7.14,7.58,10.73
		c1.29,1.85,2.51,3.74,3.75,5.62c0.14,0.2,0.24,0.43,0.35,0.65c-0.11,0.05-0.22,0.1-0.33,0.15c-0.17-0.21-0.36-0.41-0.51-0.63
		c-1.5-2.27-2.95-4.57-4.5-6.8c-2.92-4.17-5.84-8.34-8.89-12.42c-1.58-2.11-3.44-4.01-5.16-6.01c-0.38-0.44-0.69-0.45-1.08-0.01
		c-0.49,0.55-1.09,1.02-1.55,1.6c-2.1,2.65-4.29,5.25-6.23,8.02C12.5,29.74,8.71,35.41,4.88,41.06c-0.22,0.33-0.34,0.73-0.51,1.1
		C4.07,42.17,3.77,42.18,3.47,42.19z"/>
	<path id="XMLID_579_" fill="#A2DCEE" d="M44.35,40.4c0.11,0.25,0.22,0.49,0.33,0.74c-0.6,0.59-1.2,1.18-1.81,1.77
		c-4.41,1.88-8.52,4.29-12.19,7.39c-1.43,1.21-3.71,3.41-5.1,4.67c-0.11,0.4-0.68,1.04-0.82,1.1c-0.1,0.04-0.23-0.24-0.51-0.6
		c-0.93-0.91-2.28-2.32-3.21-3.23c-3.89-3.76-8.36-6.66-13.29-8.85c-1.09-0.49-2.25-0.83-3.37-1.23c0.17-0.37,0.28-0.77,0.51-1.1
		c3.83-5.65,7.62-11.33,11.54-16.91c1.94-2.77,4.13-5.36,6.23-8.02c0.46-0.58,1.05-1.05,1.55-1.6c0.39-0.44,0.7-0.43,1.08,0.01
		c1.72,2,3.58,3.9,5.16,6.01c3.05,4.07,5.97,8.25,8.89,12.42c1.56,2.23,3,4.53,4.5,6.8C43.99,40,44.18,40.19,44.35,40.4z
		 M25.02,15.19c-0.36,0.2-0.63,0.29-0.83,0.47c-0.77,0.69-1.62,1.33-2.27,2.12c-1.43,1.73-2.8,3.52-4.13,5.33
		c-1.1,1.49-2.11,3.05-3.18,4.57c-1.76,2.51-3.6,4.96-5.26,7.53c-1.13,1.76-2,3.68-3.03,5.51c-0.33,0.58-0.26,0.82,0.36,1.1
		c2.07,0.95,4.12,1.91,6.14,2.96c4.27,2.22,7.7,5.53,11.13,8.81c0.69,0.66,0.78,0.68,1.49,0.01c1.7-1.59,3.34-3.24,5.12-4.73
		c3.68-3.07,7.78-5.44,12.27-7.13c0.9-0.34,0.93-0.56,0.4-1.35c-1.45-2.19-2.85-4.4-4.32-6.58c-2.15-3.2-4.29-6.41-6.53-9.54
		c-1.93-2.7-3.99-5.3-6.02-7.92C26.02,15.9,25.48,15.58,25.02,15.19z"/>
	<path id="XMLID_578_" fill="#A2DCEE" d="M3.47,42.19c0.3-0.01,0.6-0.01,0.91-0.02c1.13,0.41,2.28,0.75,3.37,1.23
		c4.93,2.19,9.4,5.09,13.29,8.85c0.94,0.91,1.86,1.82,2.8,2.73c0.28,0.33,0.56,0.67,0.92,1.09c0.66-0.76,1.2-1.38,1.74-2
		c1.39-1.26,2.74-2.56,4.18-3.77c3.68-3.1,7.78-5.5,12.19-7.39c0.76-0.29,1.53-0.57,2.4-0.9c-0.25-0.37-0.42-0.62-0.6-0.87
		c-0.11-0.25-0.22-0.49-0.33-0.74c0.11-0.05,0.22-0.1,0.33-0.15c0.37,0.55,0.74,1.11,1.11,1.66c0.32,0.48,0.15,0.76-0.35,0.97
		c-1.76,0.72-3.56,1.37-5.27,2.2c-3.59,1.75-6.96,3.88-10,6.48c-0.09,0.08-0.16,0.19-0.24,0.28c-1.52,1.48-3.07,2.94-4.56,4.46
		c-0.42,0.43-0.62,0.4-0.98-0.01c-3.7-4.18-8.01-7.62-12.88-10.33c-0.62-0.35-1.27-0.64-1.91-0.95c-1.82-0.76-3.64-1.51-5.44-2.29
		C3.89,42.61,3.69,42.37,3.47,42.19z"/>
</g>
<g id="Crystal_-_Inner_Rim" opacity="0.9">
	<path id="XMLID_580_" fill="#7AC8E5" d="M28.15,49.01c-1.07,1.12-2.15,2.24-3.25,3.38c-4.94-5-10.39-8.92-16.83-11.62
		c5.32-7.92,10.46-15.9,16.64-23.12c2.09,1.64,15.38,20.08,16.72,23.16c-1.05,0.47-2.1,0.93-3.15,1.4
		c-0.06-0.16-0.12-0.32-0.17-0.47c0.11-0.09,0.22-0.18,0.33-0.28c0.56-0.24,1.13-0.46,1.67-0.73c0.15-0.07,0.24-0.28,0.35-0.43
		c-2.33-3.47-4.57-6.99-7.01-10.38c-2.71-3.77-5.59-7.41-8.4-11.11c-0.26-0.41-0.44-0.13-0.61,0.08c-1.02,1.23-2.13,2.41-3.05,3.71
		c-4.04,5.75-8.02,11.53-12.02,17.31c-0.09,0.13-0.07,0.32-0.11,0.49c0.9,0.5,1.79,1,2.69,1.5c0.59,0.3,1.17,0.61,1.76,0.91
		c0.16,0.11,0.31,0.24,0.48,0.34c3.2,1.9,6.2,4.06,8.87,6.66c0.48,0.46,1.01,0.87,1.59,1.35c0.07-0.73,0.14-1.32,0.19-1.9
		c0.04-0.53,0.25-0.73,0.76-0.45c0.64,0.35,1.28,0.5,1.97,0.09C27.71,48.82,27.96,48.96,28.15,49.01z"/>
</g>
<g id="Crystal_-_Medium_Blue" opacity="0.9">
	<path id="XMLID_576_" fill="#6EC7E1" d="M25.05,18.8c0,0.73,0,1.46,0,2.08c-0.21,0.11-0.56,0.19-0.74,0.41
		c-1.19,1.51-2.42,3-3.5,4.59c-2.83,4.14-5.59,8.32-8.37,12.49c-0.08,0.12-0.12,0.27-0.18,0.4c-0.1,0.24-0.2,0.49-0.3,0.73
		c-0.89,0.29-1.79,0.59-2.68,0.88c0.03-0.16,0.02-0.36,0.11-0.49c4-5.78,7.98-11.56,12.02-17.31c0.92-1.31,2.02-2.48,3.05-3.71
		C24.61,18.68,24.8,18.4,25.05,18.8z"/>
	<path id="XMLID_575_" fill="#6EC7E1" d="M13.9,39.07c-0.14-0.03-0.28-0.05-0.54-0.11c0.78-1.25,1.48-2.44,2.25-3.58
		c2.24-3.3,4.48-6.59,6.77-9.85c0.58-0.82,1.33-1.53,2.04-2.25c0.13-0.14,0.57-0.21,0.65-0.12c0.79,0.87,1.54,1.77,2.31,2.67
		c-0.06,0.05-0.12,0.1-0.18,0.15c-0.59-0.68-1.18-1.36-1.77-2.04c-0.07,0.02-0.13,0.05-0.2,0.07c-0.18,1.44-0.84,2.84,0.21,4.31
		c1.68,2.36,3.25,4.79,4.86,7.2c0.1,0.14,0.12,0.34,0.07,0.56c-1.8-2.71-3.6-5.42-5.51-8.29c-0.42,0.54-0.73,0.88-0.98,1.26
		c-1.68,2.57-3.34,5.15-5.02,7.72c-0.18,0.28-0.44,0.51-0.67,0.77C16.76,38.06,15.33,38.57,13.9,39.07z"/>
</g>
<g id="Crystal_-_Darkest" opacity="0.9">
	<path id="XMLID_514_" fill="#17A2D4" d="M27.25,46.19c-0.84,0.65-1.68,1.3-2.51,1.95c-1.18-1-2.37-2-3.55-3
		c0.26,0.1,0.55,0.16,0.77,0.32c0.8,0.61,1.57,1.27,2.37,1.88c0.17,0.13,0.46,0.24,0.64,0.19c0.78-0.24,1.29-1.21,1.13-2.04
		c1.2-1.04,2.39-2.09,3.59-3.13c1.13-0.65,2.26-1.3,3.39-1.94c0.9-0.35,1.8-0.71,2.7-1.06c0-0.07,0.01-0.14,0.01-0.21
		c-1.51-0.51-3.01-1.03-4.52-1.52c-0.11-0.04-0.27,0.08-0.41,0.12c-1.49,0.94-2.98,1.87-4.47,2.81c-0.5,0.36-0.99,0.72-1.49,1.08
		c-0.28-0.15-0.57-0.27-0.83-0.45c-0.99-0.69-1.93-1.45-2.95-2.08c-0.93-0.58-1.94-1.04-2.92-1.55c0.23-0.25,0.49-0.48,0.67-0.77
		c1.68-2.57,3.34-5.15,5.02-7.72c0.25-0.38,0.56-0.72,0.98-1.26c1.91,2.87,3.71,5.58,5.51,8.29c0.05-0.22,0.03-0.41-0.07-0.56
		c-1.61-2.41-3.18-4.84-4.86-7.2c-1.05-1.47-0.39-2.87-0.21-4.31c0.07-0.02,0.13-0.05,0.2-0.07c0.59,0.68,1.18,1.36,1.77,2.04
		c0.06-0.05,0.12-0.1,0.18-0.15c-0.76-0.9-1.51-1.8-2.31-2.67c-0.08-0.09-0.52-0.02-0.65,0.12c-0.71,0.72-1.46,1.43-2.04,2.25
		c-2.29,3.26-4.54,6.55-6.77,9.85c-0.77,1.14-1.47,2.33-2.25,3.58c0.27,0.05,0.41,0.08,0.54,0.11c-0.05,0.05-0.22,0.2-0.27,0.25
		c-0.2-0.08-0.3-0.12-0.5-0.18c-0.3-0.08-0.65-0.11-0.95-0.17c0.06-0.13,0.18-0.47,0.26-0.59c2.78-4.17,5.54-8.35,8.37-12.49
		c1.08-1.59,2.31-3.08,3.5-4.59c0.17-0.22,0.53-0.3,0.74-0.41c0-0.62,0-1.35,0-2.08c2.81,3.7,5.69,7.34,8.4,11.11
		c2.44,3.39,4.68,6.91,7.01,10.38c-0.71-0.21-1.41-0.44-2.13-0.62c-0.27-0.07-0.61-0.13-0.85-0.03c-0.75,0.31-1.47,0.69-2.2,1.05
		c-1.09,0.64-2.18,1.29-3.27,1.93c-0.84,0.6-1.68,1.19-2.51,1.79C28.75,45.01,28,45.6,27.25,46.19z"/>
</g>
<g id="Crystal_-_Highlights" opacity="0.9">
	<path id="XMLID_573_" fill="#CAEBFC" d="M31.46,42.76c0.6-0.59,1.2-1.18,1.81-1.77c0.17,0.25,0.35,0.5,0.6,0.87
		C32.99,42.18,32.23,42.47,31.46,42.76z"/>
	<path id="XMLID_572_" fill="#CAEBFC" d="M30.09,47.55c0.35-0.3,0.71-0.6,1.06-0.9c0.93-0.65,1.87-1.29,2.8-1.94
		c0.44-0.25,0.89-0.5,1.33-0.75c-0.02,0.13,0,0.32-0.08,0.38c-1.42,1.08-2.84,2.16-4.3,3.2C30.73,47.68,30.37,47.56,30.09,47.55z"/>
	<path id="XMLID_571_" fill="#E3F4FC" d="M13.74,40.42c0.45,1.61,0.35,1.72-1.34,1.49c-0.14-0.02-0.29-0.02-0.44-0.03
		c-0.9-0.5-1.79-1-2.69-1.5c0.89-0.29,1.79-0.59,2.68-0.88C12.55,39.81,13.15,40.12,13.74,40.42z"/>
	<path id="XMLID_570_" fill="#E3F4FC" d="M24.89,41.64c-0.08,0.31-0.16,0.61-0.27,1.04c-0.45-0.28-0.88-0.53-1.29-0.81
		c-0.37-0.25-0.73-0.51-1.07-0.8c-0.73-0.62-1.48-0.8-2.4-0.37c-0.56,0.26-1.19,0.38-1.79,0.56c-0.59-0.3-1.17-0.62-1.77-0.9
		c-0.84-0.39-1.7-0.76-2.55-1.14c0.05-0.05,0.1-0.1,0.15-0.15c1.43-0.51,2.86-1.01,4.3-1.52c0.98,0.51,1.98,0.97,2.92,1.55
		c1.02,0.64,1.96,1.39,2.95,2.08C24.32,41.37,24.61,41.49,24.89,41.64z"/>
	<path id="XMLID_569_" fill="#E3F4FC" d="M13.57,39.3c0.04,0.02,0.14-0.09,0.18-0.08c0.83,0.36,1.74,0.76,2.55,1.14
		c0.6,0.28,1.18,0.6,1.77,0.9c2.56,1.43,4.73,3.34,6.78,5.59c0.46-0.5,0.86-0.93,1.26-1.36c0.16,0.83-0.35,1.81-1.13,2.04
		c-0.18,0.05-0.47-0.06-0.64-0.19c-0.8-0.61-1.57-1.27-2.37-1.88c-0.21-0.16-0.51-0.22-0.77-0.32c-1.13-0.8-2.23-1.64-3.4-2.38
		c-1.32-0.83-2.69-1.57-4.04-2.35c-0.6-0.31-1.19-0.61-1.79-0.92c0.1-0.24,0.12-0.3,0.23-0.54c0.3,0.07,0.42,0.02,0.72,0.11
		C13.1,39.13,13.38,39.22,13.57,39.3z"/>
	<path id="XMLID_568_" fill="#CAEBFC" d="M29.68,42.36c-0.21-0.04-0.43-0.05-0.63-0.11c-0.33-0.11-0.69-0.2-0.97-0.39
		c-0.59-0.4-1.14-0.87-1.71-1.31c1.49-0.94,2.98-1.87,4.47-2.81c0.9,0.76,2.09,1.28,2.23,2.68C31.95,41.07,30.82,41.72,29.68,42.36z
		"/>
	<path id="XMLID_567_" fill="#CAEBFC" d="M27.25,46.19c0.75-0.59,1.5-1.18,2.24-1.77c0,0.17,0.03,0.34,0,0.5
		c-0.22,1.02-0.03,1.23,1,1c1.61-0.36,2.82-1.39,3.94-2.52c0.23-0.23,0.29-0.62,0.43-0.93c-0.33-0.05-0.66-0.17-0.97-0.14
		c-0.63,0.06-1.25,0.2-1.88,0.3c1.09-0.64,2.18-1.29,3.27-1.93c0.63,0.05,1.26,0.14,1.9,0.15c0.54,0,0.97,0.14,1.26,0.61
		c-0.11,0.09-0.22,0.18-0.33,0.28c-1.16,0.65-2.33,1.27-3.45,1.98c-0.32,0.2-0.47,0.66-0.7,1c-0.93,0.65-1.87,1.29-2.8,1.94
		c-0.35,0.07-0.74,0.06-1.06,0.21c-1.22,0.58-1.66,0.51-2.6-0.52C27.44,46.28,27.34,46.24,27.25,46.19z"/>
	<path id="XMLID_566_" fill="#E3F4FC" d="M9.93,44.63c0.73,0.13,1.89,0.37,2.15,0.57c0,0,0.54,0.17,2.49,1.3
		c0.54,0.31,1.62,1.12,2.77,2.11c1.15,0.98,2.51,2.4,2.49,2.52c0,0-0.59-0.36-1.07-0.85c-0.49-0.49-7.34-4.93-7.9-5.2
		C10.4,44.86,9.82,44.62,9.93,44.63z"/>
	<path id="XMLID_565_" fill="#E3F4FC" d="M4.37,41.45c0.55,0.76,1.49,0.93,2.04,1.69c-0.75-0.33-1.51-0.67-2.43-1.08
		C4.29,41.6,4.14,41.82,4.37,41.45z"/>
	<path id="XMLID_545_" fill="#CAEBFC" d="M33.73,48.43c0.43-0.48,1.15-1.52,1.48-1.48c1.87-1.34,4.81-3.13,5.53-2.98
		c1.14-0.25,1.68,0.07,1.65-0.08c-0.04,0.13-3.25,1.55-3.34,1.6c-1.55,0.89-2.29,1.28-3.86,2.13C35,47.71,34,48.47,33.73,48.43z"/>
	<path id="XMLID_543_" fill="#E3F4FC" d="M4.5,42.3c0.05-0.94,3.35-6.15,3.67-7.11C7.72,35.88,4.39,41.15,3.84,42
		C4.35,42.22,4.1,42.12,4.5,42.3z"/>
	<path id="XMLID_541_" fill="#E3F4FC" d="M9.78,40.63c0.49-0.86,1.73-3.08,2.18-4.03c-0.45,0.69-2.14,2.95-2.68,3.8
		C9.78,40.63,9.38,40.46,9.78,40.63z"/>
	<path id="XMLID_531_" fill="#CAEBFC" d="M32.01,42.63c0.62-0.1,1.25-0.24,1.88-0.3c0.32-0.03,0.65,0.09,0.97,0.14
		c-0.14,0.32-0.2,0.71-0.43,0.93c-1.12,1.13-2.32,2.17-3.94,2.52c-1.03,0.23-1.22,0.02-1-1c0.03-0.16,0-0.33,0-0.5
		C30.33,43.82,31.17,43.22,32.01,42.63z"/>
</g>
<g id="Glow_Layer">
	<defs>
		<filter id="Adobe_OpacityMaskFilter" filterUnits="userSpaceOnUse" x="3.47" y="13.45" width="42.48" height="43.16">
			<feColorMatrix  type="matrix" values="1 0 0 0 0  0 1 0 0 0  0 0 1 0 0  0 0 0 1 0"/>
		</filter>
	</defs>
	<mask maskUnits="userSpaceOnUse" x="3.47" y="13.45" width="42.48" height="43.16" id="XMLID_463_">
		<g id="XMLID_404_" filter="url(#Adobe_OpacityMaskFilter)">
			
				<radialGradient id="XMLID_465_" cx="18.5876" cy="45.9699" r="22.4149" gradientTransform="matrix(0.7945 0.6073 -0.3644 0.4767 17.8778 11.8805)" gradientUnits="userSpaceOnUse">
				<stop  offset="0.4286" style="stop-color:#E4F5FD"/>
				<stop  offset="1" style="stop-color:#000000;stop-opacity:0"/>
			</radialGradient>
			<path id="XMLID_470_" fill="url(#XMLID_465_)" d="M37.68,50.19C34.85,62.27,22.8,69.77,10.77,66.95S-8.72,52.05-5.89,39.97
				S8.99,20.4,21.02,23.22S40.51,38.12,37.68,50.19z"/>
		</g>
	</mask>
	<g id="XMLID_468_" mask="url(#XMLID_463_)">
		<path id="XMLID_458_" opacity="0.9" fill="#BFC1C3" d="M24.93,42.64"/>
		<path id="XMLID_430_" fill="#E3F4FC" d="M24.23,55.46c0.74-0.37,2.03-1.37,2.93-1.77c-0.57,0.59-1.76,1.67-2.45,2.4
			C24.37,55.64,24.5,55.8,24.23,55.46z"/>
		<path id="XMLID_443_" fill="#E3F4FC" d="M23.84,54.98c0.89-0.3,1.78-0.61,2.67-0.91"/>
		<path id="XMLID_444_" fill="#E3F4FC" d="M25.23,55.39c-0.88-0.32-3.28-2.47-4-2.95c0.53,0.63,2.82,2.79,3.46,3.57
			C25.06,55.59,24.95,55.72,25.23,55.39z"/>
		<path id="XMLID_596_" opacity="0.9" fill="#BFC1C3" d="M24.93,42.64"/>
		<path id="XMLID_513_" fill="#E3F4FC" d="M24.23,55.46c0.74-0.37,2.03-1.37,2.93-1.77c-0.57,0.59-1.76,1.67-2.45,2.4
			C24.37,55.64,24.5,55.8,24.23,55.46z"/>
		<path id="XMLID_500_" fill="#E3F4FC" d="M23.84,54.98c0.89-0.3,1.78-0.61,2.67-0.91"/>
		<path id="XMLID_451_" fill="#E3F4FC" d="M25.23,55.39c-0.88-0.32-3.28-2.47-4-2.95c0.53,0.63,2.82,2.79,3.46,3.57
			C25.06,55.59,24.95,55.72,25.23,55.39z"/>
		<path id="XMLID_467_" fill="#8ACDE9" d="M28.15,49.01c-0.19-0.04-0.43-0.19-0.56-0.11c-0.69,0.41-1.33,0.25-1.97-0.09
			c-0.52-0.28-0.72-0.08-0.76,0.45c-0.05,0.59-0.12,1.17-0.19,1.9c-0.57-0.49-1.11-0.89-1.59-1.35c-2.68-2.6-5.68-4.76-8.87-6.66
			c-0.17-0.1-0.32-0.23-0.48-0.34c0.81-0.1,1.61-0.57,2.44-0.06c0.54,0.34,1.1,0.65,1.65,0.98c1.73,1.04,3.12,2.48,4.55,3.88
			c0.63,0.61,1.41,1.06,2.12,1.59c0.06-0.06,0.13-0.12,0.19-0.17c0.02-0.29,0.03-0.58,0.05-0.86c0.84-0.65,1.68-1.3,2.51-1.95
			c0.08,0.05,0.18,0.09,0.25,0.16c0.93,1.02,1.37,1.09,2.6,0.52c0.32-0.15,0.7-0.14,1.06-0.21c-0.35,0.3-0.71,0.6-1.06,0.9
			C29.45,48.04,28.8,48.52,28.15,49.01z"/>
		<path id="XMLID_466_" fill="#8ACDE9" d="M35.28,43.97c-0.44,0.25-0.89,0.5-1.33,0.75c0.23-0.34,0.38-0.8,0.7-1
			c1.12-0.71,2.3-1.33,3.45-1.98c0.06,0.16,0.12,0.32,0.17,0.47C37.28,42.79,36.28,43.38,35.28,43.97z"/>
		<path id="XMLID_464_" fill="#8ACDE9" d="M21.19,45.15c1.18,1,2.37,2,3.55,3c-0.02,0.29-0.03,0.58-0.05,0.86
			c-0.06,0.06-0.13,0.12-0.19,0.17c-0.71-0.52-1.5-0.98-2.12-1.59c-1.43-1.4-2.82-2.83-4.55-3.88c-0.55-0.33-1.11-0.65-1.65-0.98
			c-0.83-0.51-1.63-0.04-2.44,0.06c-0.59-0.3-1.17-0.61-1.76-0.91c0.15,0.01,0.29,0.01,0.44,0.03c1.7,0.23,1.79,0.12,1.34-1.49
			c1.35,0.78,2.73,1.51,4.04,2.35C18.96,43.51,20.06,44.35,21.19,45.15z"/>
		<path id="XMLID_449_" fill="#8ACDE9" d="M38.43,41.45c-0.29-0.47-0.72-0.61-1.26-0.61c-0.63-0.01-1.26-0.09-1.9-0.15
			c0.73-0.35,1.45-0.74,2.2-1.05c0.24-0.1,0.58-0.04,0.85,0.03c0.72,0.18,1.42,0.41,2.13,0.62c-0.12,0.15-0.2,0.36-0.35,0.43
			C39.56,40.99,38.99,41.21,38.43,41.45z"/>
		<path id="XMLID_448_" fill="#8ACDE9" d="M29.68,42.36c-1.2,1.04-2.39,2.09-3.59,3.13c-0.4,0.43-0.79,0.86-1.26,1.36
			c-2.04-2.25-4.22-4.16-6.78-5.59c0.6-0.18,1.23-0.3,1.79-0.56c0.91-0.43,1.67-0.25,2.4,0.37c0.34,0.29,0.7,0.55,1.07,0.8
			c0.41,0.28,0.84,0.53,1.29,0.81c0.11-0.43,0.19-0.73,0.27-1.04c0.5-0.36,0.99-0.72,1.49-1.08c0.57,0.44,1.12,0.91,1.71,1.31
			c0.28,0.19,0.64,0.28,0.97,0.39C29.26,42.32,29.47,42.33,29.68,42.36z"/>
		<path id="XMLID_446_" fill="#8ACDE9" d="M33.08,40.42c-0.14-1.4-1.33-1.91-2.23-2.68c0.14-0.04,0.3-0.16,0.41-0.12
			c1.51,0.5,3.02,1.01,4.52,1.52c0,0.07-0.01,0.14-0.01,0.21C34.87,39.71,33.98,40.07,33.08,40.42z"/>
		<path id="XMLID_445_" fill="#A5DDEF" d="M30.09,47.55c0.35-0.3,0.71-0.6,1.06-0.9c0.93-0.65,1.87-1.29,2.8-1.94
			c0.44-0.25,0.89-0.5,1.33-0.75c-0.02,0.13,0,0.32-0.08,0.38c-1.42,1.08-2.84,2.16-4.3,3.2C30.73,47.68,30.37,47.56,30.09,47.55z"
			/>
		<path id="XMLID_442_" opacity="0.9" fill="#A2DCEE" d="M3.47,42.19c0.3-0.01,0.6-0.01,0.91-0.02c1.13,0.41,2.28,0.75,3.37,1.23
			c4.93,2.19,9.4,5.09,13.29,8.85c0.94,0.91,1.86,1.82,2.8,2.73c0.28,0.33,0.56,0.67,0.92,1.09c0.66-0.76,1.2-1.38,1.74-2
			c1.39-1.26,2.74-2.56,4.18-3.77c3.68-3.1,7.78-5.5,12.19-7.39c0.76-0.29,1.53-0.57,2.4-0.9c-0.25-0.37-0.42-0.62-0.6-0.87
			c-0.11-0.25-0.22-0.49-0.33-0.74c0.11-0.05,0.22-0.1,0.33-0.15c0.37,0.55,0.74,1.11,1.11,1.66c0.32,0.48,0.15,0.76-0.35,0.97
			c-1.76,0.72-3.56,1.37-5.27,2.2c-3.59,1.75-6.96,3.88-10,6.48c-0.09,0.08-0.16,0.19-0.24,0.28c-1.52,1.48-3.07,2.94-4.56,4.46
			c-0.42,0.43-0.62,0.4-0.98-0.01c-3.7-4.18-8.01-7.62-12.88-10.33c-0.62-0.35-1.27-0.64-1.91-0.95c-1.82-0.76-3.64-1.51-5.44-2.29
			C3.89,42.61,3.69,42.37,3.47,42.19z"/>
		<path id="XMLID_436_" opacity="0.9" fill="#A2DCEE" d="M44.35,40.4c0.11,0.25,0.22,0.49,0.33,0.74c-0.6,0.59-1.2,1.18-1.81,1.77
			c-4.41,1.88-8.52,4.29-12.19,7.39c-1.43,1.21-3.71,3.41-5.1,4.67c-0.11,0.4-0.68,1.04-0.82,1.1c-0.1,0.04-0.23-0.24-0.51-0.6
			c-0.93-0.91-2.28-2.32-3.21-3.23c-3.89-3.76-8.36-6.66-13.29-8.85c-1.09-0.49-2.25-0.83-3.37-1.23c0.17-0.37,0.28-0.77,0.51-1.1
			c3.83-5.65,7.62-11.33,11.54-16.91c1.94-2.77,4.13-5.36,6.23-8.02c0.46-0.58,1.05-1.05,1.55-1.6c0.39-0.44,0.7-0.43,1.08,0.01
			c1.72,2,3.58,3.9,5.16,6.01c3.05,4.07,5.97,8.25,8.89,12.42c1.56,2.23,3,4.53,4.5,6.8C43.99,40,44.18,40.19,44.35,40.4z
			 M25.02,15.19c-0.36,0.2-0.63,0.29-0.83,0.47c-0.77,0.69-1.62,1.33-2.27,2.12c-1.43,1.73-2.8,3.52-4.13,5.33
			c-1.1,1.49-2.11,3.05-3.18,4.57c-1.76,2.51-3.6,4.96-5.26,7.53c-1.13,1.76-2,3.68-3.03,5.51c-0.33,0.58-0.26,0.82,0.36,1.1
			c2.07,0.95,4.12,1.91,6.14,2.96c4.27,2.22,7.7,5.53,11.13,8.81c0.69,0.66,0.78,0.68,1.49,0.01c1.7-1.59,3.34-3.24,5.12-4.73
			c3.68-3.07,7.78-5.44,12.27-7.13c0.9-0.34,0.93-0.56,0.4-1.35c-1.45-2.19-2.85-4.4-4.32-6.58c-2.15-3.2-4.29-6.41-6.53-9.54
			c-1.93-2.7-3.99-5.3-6.02-7.92C26.02,15.9,25.48,15.58,25.02,15.19z"/>
		<path id="XMLID_425_" fill="#A2DCEE" d="M25.02,15.19c0.45,0.39,0.99,0.71,1.35,1.17c2.04,2.62,4.09,5.22,6.02,7.92
			c2.24,3.13,4.38,6.34,6.53,9.54c1.46,2.17,2.87,4.39,4.32,6.58c0.53,0.79,0.49,1.02-0.4,1.35c-4.49,1.69-8.6,4.06-12.27,7.13
			c-1.78,1.49-3.43,3.14-5.12,4.73c-0.71,0.67-0.8,0.65-1.49-0.01c-3.44-3.28-6.86-6.59-11.13-8.81c-2.02-1.05-4.07-2.02-6.14-2.96
			c-0.62-0.28-0.69-0.52-0.36-1.1c1.03-1.82,1.9-3.75,3.03-5.51c1.66-2.57,3.51-5.02,5.26-7.53c1.06-1.52,2.08-3.08,3.18-4.57
			c1.33-1.81,2.7-3.6,4.13-5.33c0.65-0.79,1.49-1.43,2.27-2.12C24.39,15.49,24.66,15.39,25.02,15.19z M35.28,43.97
			c1-0.59,2-1.18,2.99-1.77c1.05-0.47,2.1-0.94,3.15-1.4c-1.34-3.08-14.64-21.51-16.72-23.16c-6.19,7.22-11.33,15.2-16.64,23.12
			c6.45,2.7,11.9,6.62,16.83,11.62c1.1-1.15,2.18-2.26,3.25-3.38c0.65-0.48,1.3-0.97,1.95-1.45c0.27,0.01,0.63,0.13,0.81,0
			c1.45-1.04,2.88-2.12,4.3-3.2C35.28,44.29,35.26,44.1,35.28,43.97z"/>
		<path id="XMLID_424_" fill="#A5DDEF" d="M3.47,42.19c0.85-1.39,1.65-2.82,2.58-4.15c3.83-5.54,7.62-11.1,11.58-16.55
			c1.95-2.67,4.24-5.09,6.37-7.63c0.49-0.58,0.86-0.51,1.37,0.02c2.82,2.91,5.3,6.07,7.63,9.38c2.52,3.58,5.07,7.14,7.58,10.73
			c1.29,1.85,2.51,3.74,3.75,5.62c0.14,0.2,0.24,0.43,0.35,0.65c-0.11,0.05-0.22,0.1-0.33,0.15c-0.17-0.21-0.36-0.41-0.51-0.63
			c-1.5-2.27-2.95-4.57-4.5-6.8c-2.92-4.17-5.84-8.34-8.89-12.42c-1.58-2.11-3.44-4.01-5.16-6.01c-0.38-0.44-0.69-0.45-1.08-0.01
			c-0.49,0.55-1.09,1.02-1.55,1.6c-2.1,2.65-4.29,5.25-6.23,8.02C12.5,29.74,8.71,35.41,4.88,41.06c-0.22,0.33-0.34,0.73-0.51,1.1
			C4.07,42.17,3.77,42.18,3.47,42.19z"/>
		<path id="XMLID_421_" fill="#A2DCEE" d="M44.35,40.4c0.11,0.25,0.22,0.49,0.33,0.74c-0.6,0.59-1.2,1.18-1.81,1.77
			c-4.41,1.88-8.52,4.29-12.19,7.39c-1.43,1.21-3.71,3.41-5.1,4.67c-0.11,0.4-0.68,1.04-0.82,1.1c-0.1,0.04-0.23-0.24-0.51-0.6
			c-0.93-0.91-2.28-2.32-3.21-3.23c-3.89-3.76-8.36-6.66-13.29-8.85c-1.09-0.49-2.25-0.83-3.37-1.23c0.17-0.37,0.28-0.77,0.51-1.1
			c3.83-5.65,7.62-11.33,11.54-16.91c1.94-2.77,4.13-5.36,6.23-8.02c0.46-0.58,1.05-1.05,1.55-1.6c0.39-0.44,0.7-0.43,1.08,0.01
			c1.72,2,3.58,3.9,5.16,6.01c3.05,4.07,5.97,8.25,8.89,12.42c1.56,2.23,3,4.53,4.5,6.8C43.99,40,44.18,40.19,44.35,40.4z
			 M25.02,15.19c-0.36,0.2-0.63,0.29-0.83,0.47c-0.77,0.69-1.62,1.33-2.27,2.12c-1.43,1.73-2.8,3.52-4.13,5.33
			c-1.1,1.49-2.11,3.05-3.18,4.57c-1.76,2.51-3.6,4.96-5.26,7.53c-1.13,1.76-2,3.68-3.03,5.51c-0.33,0.58-0.26,0.82,0.36,1.1
			c2.07,0.95,4.12,1.91,6.14,2.96c4.27,2.22,7.7,5.53,11.13,8.81c0.69,0.66,0.78,0.68,1.49,0.01c1.7-1.59,3.34-3.24,5.12-4.73
			c3.68-3.07,7.78-5.44,12.27-7.13c0.9-0.34,0.93-0.56,0.4-1.35c-1.45-2.19-2.85-4.4-4.32-6.58c-2.15-3.2-4.29-6.41-6.53-9.54
			c-1.93-2.7-3.99-5.3-6.02-7.92C26.02,15.9,25.48,15.58,25.02,15.19z"/>
		<path id="XMLID_418_" fill="#A2DCEE" d="M3.47,42.19c0.3-0.01,0.6-0.01,0.91-0.02c1.13,0.41,2.28,0.75,3.37,1.23
			c4.93,2.19,9.4,5.09,13.29,8.85c0.94,0.91,1.86,1.82,2.8,2.73c0.28,0.33,0.56,0.67,0.92,1.09c0.66-0.76,1.2-1.38,1.74-2
			c1.39-1.26,2.74-2.56,4.18-3.77c3.68-3.1,7.78-5.5,12.19-7.39c0.76-0.29,1.53-0.57,2.4-0.9c-0.25-0.37-0.42-0.62-0.6-0.87
			c-0.11-0.25-0.22-0.49-0.33-0.74c0.11-0.05,0.22-0.1,0.33-0.15c0.37,0.55,0.74,1.11,1.11,1.66c0.32,0.48,0.15,0.76-0.35,0.97
			c-1.76,0.72-3.56,1.37-5.27,2.2c-3.59,1.75-6.96,3.88-10,6.48c-0.09,0.08-0.16,0.19-0.24,0.28c-1.52,1.48-3.07,2.94-4.56,4.46
			c-0.42,0.43-0.62,0.4-0.98-0.01c-3.7-4.18-8.01-7.62-12.88-10.33c-0.62-0.35-1.27-0.64-1.91-0.95c-1.82-0.76-3.64-1.51-5.44-2.29
			C3.89,42.61,3.69,42.37,3.47,42.19z"/>
		<path id="XMLID_415_" fill="#7AC8E5" d="M28.15,49.01c-1.07,1.12-2.15,2.24-3.25,3.38c-4.94-5-10.39-8.92-16.83-11.62
			c5.32-7.92,10.46-15.9,16.64-23.12c2.09,1.64,15.38,20.08,16.72,23.16c-1.05,0.47-2.1,0.93-3.15,1.4
			c-0.06-0.16-0.12-0.32-0.17-0.47c0.11-0.09,0.22-0.18,0.33-0.28c0.56-0.24,1.13-0.46,1.67-0.73c0.15-0.07,0.24-0.28,0.35-0.43
			c-2.33-3.47-4.57-6.99-7.01-10.38c-2.71-3.77-5.59-7.41-8.4-11.11c-0.26-0.41-0.44-0.13-0.61,0.08c-1.02,1.23-2.13,2.41-3.05,3.71
			c-4.04,5.75-8.02,11.53-12.02,17.31c-0.09,0.13-0.07,0.32-0.11,0.49c0.9,0.5,1.79,1,2.69,1.5c0.59,0.3,1.17,0.61,1.76,0.91
			c0.16,0.11,0.31,0.24,0.48,0.34c3.2,1.9,6.2,4.06,8.87,6.66c0.48,0.46,1.01,0.87,1.59,1.35c0.07-0.73,0.14-1.32,0.19-1.9
			c0.04-0.53,0.25-0.73,0.76-0.45c0.64,0.35,1.28,0.5,1.97,0.09C27.71,48.82,27.96,48.96,28.15,49.01z"/>
		<path id="XMLID_414_" fill="#6EC7E1" d="M25.05,18.8c0,0.73,0,1.46,0,2.08c-0.21,0.11-0.56,0.19-0.74,0.41
			c-1.19,1.51-2.42,3-3.5,4.59c-2.83,4.14-5.59,8.32-8.37,12.49c-0.08,0.12-0.12,0.27-0.18,0.4c-0.1,0.24-0.2,0.49-0.3,0.73
			c-0.89,0.29-1.79,0.59-2.68,0.88c0.03-0.16,0.02-0.36,0.11-0.49c4-5.78,7.98-11.56,12.02-17.31c0.92-1.31,2.02-2.48,3.05-3.71
			C24.61,18.68,24.8,18.4,25.05,18.8z"/>
		<path id="XMLID_411_" fill="#6EC7E1" d="M13.9,39.07c-0.14-0.03-0.28-0.05-0.54-0.11c0.78-1.25,1.48-2.44,2.25-3.58
			c2.24-3.3,4.48-6.59,6.77-9.85c0.58-0.82,1.33-1.53,2.04-2.25c0.13-0.14,0.57-0.21,0.65-0.12c0.79,0.87,1.54,1.77,2.31,2.67
			c-0.06,0.05-0.12,0.1-0.18,0.15c-0.59-0.68-1.18-1.36-1.77-2.04c-0.07,0.02-0.13,0.05-0.2,0.07c-0.18,1.44-0.84,2.84,0.21,4.31
			c1.68,2.36,3.25,4.79,4.86,7.2c0.1,0.14,0.12,0.34,0.07,0.56c-1.8-2.71-3.6-5.42-5.51-8.29c-0.42,0.54-0.73,0.88-0.98,1.26
			c-1.68,2.57-3.34,5.15-5.02,7.72c-0.18,0.28-0.44,0.51-0.67,0.77C16.76,38.06,15.33,38.57,13.9,39.07z"/>
		<path id="XMLID_410_" fill="#17A2D4" d="M27.25,46.19c-0.84,0.65-1.68,1.3-2.51,1.95c-1.18-1-2.37-2-3.55-3
			c0.26,0.1,0.55,0.16,0.77,0.32c0.8,0.61,1.57,1.27,2.37,1.88c0.17,0.13,0.46,0.24,0.64,0.19c0.78-0.24,1.29-1.21,1.13-2.04
			c1.2-1.04,2.39-2.09,3.59-3.13c1.13-0.65,2.26-1.3,3.39-1.94c0.9-0.35,1.8-0.71,2.7-1.06c0-0.07,0.01-0.14,0.01-0.21
			c-1.51-0.51-3.01-1.03-4.52-1.52c-0.11-0.04-0.27,0.08-0.41,0.12c-1.49,0.94-2.98,1.87-4.47,2.81c-0.5,0.36-0.99,0.72-1.49,1.08
			c-0.28-0.15-0.57-0.27-0.83-0.45c-0.99-0.69-1.93-1.45-2.95-2.08c-0.93-0.58-1.94-1.04-2.92-1.55c0.23-0.25,0.49-0.48,0.67-0.77
			c1.68-2.57,3.34-5.15,5.02-7.72c0.25-0.38,0.56-0.72,0.98-1.26c1.91,2.87,3.71,5.58,5.51,8.29c0.05-0.22,0.03-0.41-0.07-0.56
			c-1.61-2.41-3.18-4.84-4.86-7.2c-1.05-1.47-0.39-2.87-0.21-4.31c0.07-0.02,0.13-0.05,0.2-0.07c0.59,0.68,1.18,1.36,1.77,2.04
			c0.06-0.05,0.12-0.1,0.18-0.15c-0.76-0.9-1.51-1.8-2.31-2.67c-0.08-0.09-0.52-0.02-0.65,0.12c-0.71,0.72-1.46,1.43-2.04,2.25
			c-2.29,3.26-4.54,6.55-6.77,9.85c-0.77,1.14-1.47,2.33-2.25,3.58c0.27,0.05,0.41,0.08,0.54,0.11c-0.05,0.05-0.22,0.2-0.27,0.25
			c-0.2-0.08-0.3-0.12-0.5-0.18c-0.3-0.08-0.65-0.11-0.95-0.17c0.06-0.13,0.18-0.47,0.26-0.59c2.78-4.17,5.54-8.35,8.37-12.49
			c1.08-1.59,2.31-3.08,3.5-4.59c0.17-0.22,0.53-0.3,0.74-0.41c0-0.62,0-1.35,0-2.08c2.81,3.7,5.69,7.34,8.4,11.11
			c2.44,3.39,4.68,6.91,7.01,10.38c-0.71-0.21-1.41-0.44-2.13-0.62c-0.27-0.07-0.61-0.13-0.85-0.03c-0.75,0.31-1.47,0.69-2.2,1.05
			c-1.09,0.64-2.18,1.29-3.27,1.93c-0.84,0.6-1.68,1.19-2.51,1.79C28.75,45.01,28,45.6,27.25,46.19z"/>
		<path id="XMLID_409_" fill="#CAEBFC" d="M42.87,42.92c0.6-0.59,1.2-1.18,1.81-1.77c0.17,0.25,0.35,0.5,0.6,0.87
			C44.4,42.34,43.63,42.63,42.87,42.92z"/>
		<path id="XMLID_408_" fill="#CAEBFC" d="M30.09,47.55c0.35-0.3,0.71-0.6,1.06-0.9c0.93-0.65,1.87-1.29,2.8-1.94
			c0.44-0.25,0.89-0.5,1.33-0.75c-0.02,0.13,0,0.32-0.08,0.38c-1.42,1.08-2.84,2.16-4.3,3.2C30.73,47.68,30.37,47.56,30.09,47.55z"
			/>
		<path id="XMLID_407_" fill="#E3F4FC" d="M13.74,40.42c0.45,1.61,0.35,1.72-1.34,1.49c-0.14-0.02-0.29-0.02-0.44-0.03
			c-0.9-0.5-1.79-1-2.69-1.5c0.89-0.29,1.79-0.59,2.68-0.88C12.55,39.81,13.15,40.12,13.74,40.42z"/>
		<path id="XMLID_406_" fill="#E3F4FC" d="M24.89,41.64c-0.08,0.31-0.16,0.61-0.27,1.04c-0.45-0.28-0.88-0.53-1.29-0.81
			c-0.37-0.25-0.73-0.51-1.07-0.8c-0.73-0.62-1.48-0.8-2.4-0.37c-0.56,0.26-1.19,0.38-1.79,0.56c-0.59-0.3-1.17-0.62-1.77-0.9
			c-0.84-0.39-1.7-0.76-2.55-1.14c0.05-0.05,0.1-0.1,0.15-0.15c1.43-0.51,2.86-1.01,4.3-1.52c0.98,0.51,1.98,0.97,2.92,1.55
			c1.02,0.64,1.96,1.39,2.95,2.08C24.32,41.37,24.61,41.49,24.89,41.64z"/>
		<path id="XMLID_403_" fill="#E3F4FC" d="M13.57,39.3c0.04,0.02,0.14-0.09,0.18-0.08c0.83,0.36,1.74,0.76,2.55,1.14
			c0.6,0.28,1.18,0.6,1.77,0.9c2.56,1.43,4.73,3.34,6.78,5.59c0.46-0.5,0.86-0.93,1.26-1.36c0.16,0.83-0.35,1.81-1.13,2.04
			c-0.18,0.05-0.47-0.06-0.64-0.19c-0.8-0.61-1.57-1.27-2.37-1.88c-0.21-0.16-0.51-0.22-0.77-0.32c-1.13-0.8-2.23-1.64-3.4-2.38
			c-1.32-0.83-2.69-1.57-4.04-2.35c-0.6-0.31-1.19-0.61-1.79-0.92c0.1-0.24,0.12-0.3,0.23-0.54c0.3,0.07,0.42,0.02,0.72,0.11
			C13.1,39.13,13.38,39.22,13.57,39.3z"/>
		<path id="XMLID_402_" fill="#CAEBFC" d="M29.68,42.36c-0.21-0.04-0.43-0.05-0.63-0.11c-0.33-0.11-0.69-0.2-0.97-0.39
			c-0.59-0.4-1.14-0.87-1.71-1.31c1.49-0.94,2.98-1.87,4.47-2.81c0.9,0.76,2.09,1.28,2.23,2.68C31.95,41.07,30.82,41.72,29.68,42.36
			z"/>
		<path id="XMLID_400_" fill="#CAEBFC" d="M27.25,46.19c0.75-0.59,1.5-1.18,2.24-1.77c0,0.17,0.03,0.34,0,0.5
			c-0.22,1.02-0.03,1.23,1,1c1.61-0.36,2.82-1.39,3.94-2.52c0.23-0.23,0.29-0.62,0.43-0.93c-0.33-0.05-0.66-0.17-0.97-0.14
			c-0.63,0.06-1.25,0.2-1.88,0.3c1.09-0.64,2.18-1.29,3.27-1.93c0.63,0.05,1.26,0.14,1.9,0.15c0.54,0,0.97,0.14,1.26,0.61
			c-0.11,0.09-0.22,0.18-0.33,0.28c-1.16,0.65-2.33,1.27-3.45,1.98c-0.32,0.2-0.47,0.66-0.7,1c-0.93,0.65-1.87,1.29-2.8,1.94
			c-0.35,0.07-0.74,0.06-1.06,0.21c-1.22,0.58-1.66,0.51-2.6-0.52C27.44,46.28,27.34,46.24,27.25,46.19z"/>
		<path id="XMLID_399_" fill="#E3F4FC" d="M9.93,44.63c0.73,0.13,1.89,0.37,2.15,0.57c0,0,0.54,0.17,2.49,1.3
			c0.54,0.31,1.62,1.12,2.77,2.11c1.15,0.98,2.51,2.4,2.49,2.52c0,0-0.59-0.36-1.07-0.85c-0.49-0.49-7.34-4.93-7.9-5.2
			C10.4,44.86,9.82,44.62,9.93,44.63z"/>
		<path id="XMLID_396_" fill="#E3F4FC" d="M4.37,41.45c0.55,0.76,1.49,0.93,2.04,1.69c-0.75-0.33-1.51-0.67-2.43-1.08
			C4.29,41.6,4.14,41.82,4.37,41.45z"/>
		<path id="XMLID_395_" fill="#CAEBFC" d="M33.73,48.43c0.43-0.48,1.15-1.52,1.48-1.48c1.87-1.34,4.81-3.13,5.53-2.98
			c1.14-0.25,1.68,0.07,1.65-0.08c-0.04,0.13-3.25,1.55-3.34,1.6c-1.55,0.89-2.29,1.28-3.86,2.13C35,47.71,34,48.47,33.73,48.43z"/>
		<path id="XMLID_394_" fill="#E3F4FC" d="M4.5,42.3c0.05-0.94,3.35-6.15,3.67-7.11C7.72,35.88,4.39,41.15,3.84,42
			C4.35,42.22,4.1,42.12,4.5,42.3z"/>
		<path id="XMLID_393_" fill="#E3F4FC" d="M9.78,40.63c0.49-0.86,1.73-3.08,2.18-4.03c-0.45,0.69-2.14,2.95-2.68,3.8
			C9.78,40.63,9.38,40.46,9.78,40.63z"/>
		<path id="XMLID_397_" fill="#CAEBFC" d="M32.01,42.63c0.62-0.1,1.25-0.24,1.88-0.3c0.32-0.03,0.65,0.09,0.97,0.14
			c-0.14,0.32-0.2,0.71-0.43,0.93c-1.12,1.13-2.32,2.17-3.94,2.52c-1.03,0.23-1.22,0.02-1-1c0.03-0.16,0-0.33,0-0.5
			C30.33,43.82,31.17,43.22,32.01,42.63z"/>
	</g>
</g>
</svg>
